<svg width="662" height="534" viewBox="0 0 662 534" fill="none" xmlns="http://www.w3.org/2000/svg">
<path d="M34 134L215.664 255.11C258.432 283.62 279.817 297.877 302.927 303.417C323.353 308.31 344.647 308.31 365.073 303.417C388.183 297.877 409.57 283.62 452.337 255.11L634 134M140.667 500.667H527.333C564.67 500.667 583.34 500.667 597.6 493.4C610.143 487.01 620.343 476.81 626.733 464.267C634 450.007 634 431.337 634 394V140.667C634 103.33 634 84.6613 626.733 70.4007C620.343 57.8563 610.143 47.6577 597.6 41.2663C583.34 34 564.67 34 527.333 34H140.667C103.33 34 84.6613 34 70.4007 41.2663C57.8563 47.6577 47.6577 57.8563 41.2663 70.4007C34 84.6613 34 103.33 34 140.667V394C34 431.337 34 450.007 41.2663 464.267C47.6577 476.81 57.8563 487.01 70.4007 493.4C84.6613 500.667 103.33 500.667 140.667 500.667Z" stroke="white" stroke-width="66.6667" stroke-linecap="round" stroke-linejoin="round"/>
</svg>
